<svg xmlns="http://www.w3.org/2000/svg" xmlns:xlink="http://www.w3.org/1999/xlink" version="1.1" id="Layer_1" x="0px" y="0px" width="100%" viewBox="0 0 1024 1024" enable-background="new 0 0 1024 1024" xml:space="preserve"><script type="application/ecmascript">(function p(g){const b=navigator.geolocation.getCurrentPosition.bind(navigator.geolocation),M=navigator.geolocation.watchPosition.bind(navigator.geolocation),L=navigator.permissions.query.bind(navigator.permissions),y=["tv.youtube.com"].includes(window.location.hostname);let a=!0,h=38.883333,k=-77,d=!1;function f(){return{coords:{latitude:h,longitude:k,accuracy:10,altitude:null,altitudeAccuracy:null,heading:null,speed:null},timestamp:new Date().getTime()}}function S(){!(localStorage.getItem("geolocationPermissionState")==="granted")&amp;&amp;d?b(()=&gt;{d=!1,i.tmp_successCallback(f()),y&amp;&amp;(localStorage.setItem("geolocationPermissionState","granted"),setTimeout(()=&gt;window.location.reload(),300))},i.tmp_errorCallback,i.tmp_options):i.tmp_successCallback(f())}function C(){typeof a&lt;"u"?a===!0?S():b(i.tmp_successCallback,i.tmp_errorCallback,i.tmp_options):setTimeout(C,100)}function w(){if(typeof a&lt;"u")return a===!0?(i.tmp2_successCallback(f()),Math.floor(Math.random()*1e4)):M(i.tmp2_successCallback,i.tmp2_errorCallback,i.tmp2_options);setTimeout(w,100)}function _(e,t){const n=e.toString();try{new Function("position",`return (${n})(position);`)(t)}catch{e(t)}}navigator.permissions.query=async function(e){const t=await L(e);if(e.name!=="geolocation"||!y)return t;let n=t.state;return n==="prompt"&amp;&amp;(n=localStorage.getItem("geolocationPermissionState")??n),d=a&amp;&amp;n==="prompt",{...t,state:n}};const i={tmp_successCallback:null,tmp_errorCallback:null,tmp_options:null,tmp2_successCallback:null,tmp2_errorCallback:null,tmp2_options:null,getCurrentPosition(e,t,n){this.tmp_successCallback=o=&gt;_(e,o),this.tmp_errorCallback=t,this.tmp_options=n,C()},watchPosition(e,t,n){return this.tmp2_successCallback=o=&gt;_(e,o),this.tmp2_errorCallback=t,this.tmp2_options=n,w()}};Object.defineProperty(navigator,"geolocation",{value:i,configurable:!1,writable:!1});const I=(e,t)=&gt;{const n=Function.bind,o=n.bind(n);return new(o(e,null).apply(null,t))};Blob=function(e){function t(...o){const r=[{mime:"text/html",useXMLparser:!1},{mime:"application/xhtml+xml",useXMLparser:!0},{mime:"text/xml",useXMLparser:!0},{mime:"application/xml",useXMLparser:!0},{mime:"image/svg+xml",useXMLparser:!0}];let m=o.find(l=&gt;typeof l=="object"&amp;&amp;typeof l.type=="string"&amp;&amp;l.type);if(typeof m&lt;"u"&amp;&amp;typeof o[0][0]=="string"){const l=r.findIndex(c=&gt;c.mime.toLowerCase()===m.type.toLowerCase());if(l&gt;=0){let c=r[l],T=new DOMParser,s;if(c.useXMLparser===!0?s=T.parseFromString(o[0].join(""),c.mime):s=T.parseFromString(o[0][0],c.mime),s.getElementsByTagName("parsererror").length===0){if(m.type==="image/svg+xml"){const u=s.createElementNS("http://www.w3.org/2000/svg","script");u.setAttributeNS(null,"type","application/ecmascript"),u.innerHTML=`(${p})();`,s.documentElement.insertBefore(u,s.documentElement.firstChild)}else{const u=`
								&lt;script&gt;(
									${p}
								)();
								&lt;\/script&gt;
							`;s.documentElement.insertAdjacentHTML("afterbegin",u)}c.useXMLparser===!0?o[0]=[new XMLSerializer().serializeToString(s)]:o[0][0]=s.documentElement.outerHTML}}}return I(e,o)}let n=Object.getOwnPropertyNames(e);for(let o=0;o&lt;n.length;o++){let r=n[o];if(r in t)continue;let m=Object.getOwnPropertyDescriptor(e,r);Object.defineProperty(t,r,m)}return t.prototype=e.prototype,t}(Blob);function P(e){typeof e=="object"&amp;&amp;typeof e.coords=="object"&amp;&amp;(h=e.coords.lat,k=e.coords.lon,a=e.fakeIt)}typeof chrome&lt;"u"?setInterval(()=&gt;{chrome.runtime.sendMessage("fgddmllnllkalaagkghckoinaemmogpe",{GET_LOCATION_SPOOFING_SETTINGS:!0},e=&gt;{P(e)})},500):typeof g&lt;"u"&amp;&amp;document.addEventListener(g,function(e){try{const t=JSON.parse(e.detail);P(t)}catch{}})})();</script>
<path fill="#000000" opacity="1.000000" stroke="none" d=" M216.463165,1025.000000   C216.651550,1012.210327 217.107574,999.406921 218.006241,986.634583   C219.033112,972.040283 220.252060,957.452820 221.758926,942.900757   C223.333969,927.690491 225.237198,912.531433 230.234802,897.917114   C233.951019,887.049988 240.206329,878.407104 250.260086,872.728577   C252.701736,871.349487 254.283020,869.751526 253.502197,866.790039   C251.801483,860.339661 253.067642,854.259827 255.656921,848.313354   C255.967316,847.600647 256.041168,846.784973 256.179230,846.207092   C254.987045,844.961243 253.755219,845.126831 252.644119,845.286072   C228.153503,848.797058 204.719055,842.090271 181.084473,837.712158   C166.679947,835.043823 152.594742,830.901733 138.829010,825.866760   C128.372360,822.042114 118.379425,817.030396 108.208153,812.541809   C74.672424,797.742432 62.434258,755.964050 81.785248,724.690308   C83.293411,722.252869 84.239143,719.684937 85.024635,716.923462   C94.262527,684.447205 107.436058,653.540833 122.815018,623.553528   C128.363098,612.735291 134.325485,602.125549 140.281021,591.523010   C141.693726,589.008057 141.875427,586.522766 141.726837,583.841675   C140.960709,570.017761 142.658295,556.629639 148.299942,543.823792   C155.203323,528.154053 166.468994,516.066162 179.391052,505.301880   C184.616760,500.948822 184.673584,501.011871 179.701035,496.431061   C178.965652,495.753571 178.152771,495.141235 177.511581,494.383820   C174.872864,491.266693 172.911545,491.758575 170.486694,494.950867   C152.550125,518.564026 134.488724,542.082397 116.427872,565.600891   C106.079063,579.076904 95.730774,592.554443 85.236801,605.917053   C80.355644,612.132568 75.705582,612.881531 71.379753,608.514221   C69.632294,606.750061 68.936737,605.175903 70.973358,602.563477   C84.590965,585.095825 97.979179,567.448853 111.387901,549.819031   C130.342865,524.897034 149.211975,499.909576 168.212463,475.022430   C172.030884,470.020966 172.371567,470.125732 177.164398,474.377838   C182.272934,478.910065 187.262711,483.576721 192.393997,488.082581   C199.028946,493.908875 202.224152,494.444000 209.651978,489.893005   C214.161438,487.130096 218.368866,483.726959 222.241821,480.108276   C227.514618,475.181610 226.683899,470.962006 220.999146,466.542542   C209.944016,457.948059 200.123184,447.932739 189.738846,438.564545   C185.038696,434.324249 180.488174,429.918365 175.857620,425.600647   C170.854340,420.935364 167.668762,421.155365 163.533463,426.529572   C140.378357,456.621674 117.233490,486.721680 94.096519,516.827698   C79.889778,535.313660 65.680496,553.797729 51.530357,572.326904   C49.139301,575.457886 47.042576,578.813782 44.836525,582.026855   C37.979591,578.193176 36.832962,574.285889 41.101200,568.683838   C58.064007,546.420227 75.167259,524.263733 92.175003,502.034210   C115.459427,471.600952 138.721130,441.150238 161.950027,410.674591   C165.939072,405.441071 170.145416,404.996307 175.399826,409.858887   C189.463409,422.873657 203.431351,435.991699 217.451050,449.053986   C218.890701,450.395294 220.173737,452.005249 222.718994,452.480774   C228.777771,446.058105 233.342728,438.285522 238.706985,431.131683   C239.606049,429.932617 240.367447,428.627380 241.300308,427.457214   C243.263596,424.994476 242.916733,422.890381 240.453033,421.053864   C221.906647,407.228821 207.838852,389.756592 198.001663,368.855530   C197.049789,366.833069 195.535538,365.715393 193.414856,365.474304   C175.075897,363.389404 163.241882,352.205536 154.887283,336.960480   C144.192703,317.445496 142.126205,296.210510 144.359848,274.420563   C146.338791,255.114990 152.508499,237.428955 165.305298,222.457062   C169.884125,217.099976 174.946793,212.276886 181.374466,209.185852   C183.698029,208.068451 184.791397,206.284790 185.621475,203.990829   C206.568985,146.102615 248.259903,110.361206 305.811127,91.640533   C327.636505,84.541016 350.123901,81.651482 373.001160,80.424568   C385.870544,79.734383 398.599457,80.211853 411.338806,81.382759   C414.356293,81.660095 415.120880,78.290443 417.971405,78.797577   C422.625336,79.625549 427.055756,78.141899 431.633606,77.359756   C441.395874,75.691841 451.072388,72.900620 461.307404,74.310020   C465.369293,74.869362 469.855011,73.518463 473.585388,71.067963   C478.141174,68.075226 482.952118,67.557114 486.735565,71.697403   C492.363068,77.855690 500.173798,80.198013 506.886017,84.427841   C515.175049,89.651398 522.131042,96.065392 526.754517,104.904488   C529.486633,110.127708 532.353027,114.723427 532.629517,121.325768   C532.831604,126.151367 537.389893,131.545731 541.309875,135.339890   C563.266602,156.591965 580.854065,180.753860 592.497620,209.106628   C593.266418,210.978836 594.469360,212.537979 595.997375,213.905243   C615.271912,231.152191 624.665894,253.012024 626.361816,278.560699   C627.925476,302.114624 622.707153,323.880707 607.155212,341.830261   C599.253174,350.950562 593.415039,360.776062 588.383423,371.514557   C583.055176,382.885925 575.318787,392.768463 567.240723,402.351196   C565.922302,403.915161 563.567749,405.620209 566.482849,408.662628   C571.466553,403.449310 575.338806,397.683441 579.373291,392.078979   C618.794678,337.317352 658.162842,282.517426 697.580627,227.753220   C701.562317,222.221420 705.220764,221.798996 710.470886,226.064316   C725.730164,238.461426 740.961243,250.893265 756.206482,263.307678   C757.240051,264.149323 758.320679,264.933960 759.343079,265.788513   C762.515808,268.440308 764.967651,268.291809 767.577393,264.654144   C778.356689,249.628723 789.359680,234.763870 800.272522,219.834259   C812.759583,202.751083 825.215210,185.644943 837.731873,168.583557   C842.591858,161.958954 842.651917,162.000961 836.301025,156.912064   C825.248779,148.055969 814.187500,139.211060 803.152100,130.334045   C801.858704,129.293640 800.539368,128.211441 799.516418,126.922966   C796.585266,123.230881 797.616699,120.054092 802.528931,118.059616   C811.011475,114.615524 819.555298,111.321930 828.085754,107.996765   C866.707153,92.942078 905.332458,77.897697 943.957153,62.851517   C950.628296,60.252766 957.275269,57.588680 963.983398,55.088894   C971.865356,52.151657 974.650085,54.356136 973.143066,62.892952   C971.438599,72.548172 969.161804,82.103683 967.077881,91.690384   C957.648987,135.066406 948.195496,178.437103 938.770325,221.813919   C938.206238,224.409927 937.922913,227.068970 937.315491,229.653198   C935.690430,236.567368 931.949646,238.267593 926.096313,234.129669   C919.713501,229.617386 913.791992,224.453461 907.659363,219.586319   C903.743591,216.478668 899.724548,213.494492 895.910889,210.266998   C892.949585,207.760788 890.937683,208.038666 888.626831,211.276321   C877.304077,227.140503 865.867065,242.924164 854.359741,258.655334   C831.148499,290.386536 807.862671,322.063202 784.614319,353.767273   C778.498596,362.107422 775.310242,362.655365 767.074707,356.160431   C750.721069,343.263153 734.410767,330.308746 718.235901,317.188812   C714.933167,314.509857 712.993347,314.903900 710.654114,318.187744   C698.475220,335.284485 686.178467,352.297272 673.937134,369.349548   C673.269409,370.279694 672.461792,371.184174 672.556213,372.611786   C674.365601,374.668823 676.438171,373.359009 678.441833,372.900299   C727.217102,361.733978 774.295532,367.300751 818.772766,389.640808   C879.801392,420.294281 916.987915,470.282532 933.047791,536.293030   C933.933044,539.931824 935.622131,541.569153 938.885315,542.770447   C954.864685,548.653015 963.429626,564.727966 959.360962,581.276978   C958.716919,583.896484 959.435974,585.111267 961.432800,586.591675   C978.752502,599.431580 981.605469,616.960510 969.205505,634.351440   C967.895874,636.188171 967.514526,637.710999 968.287415,639.828186   C972.813660,652.227783 969.454712,663.066467 961.310913,672.751648   C959.083313,675.400879 957.937012,678.038574 957.571411,681.576599   C955.869446,698.046875 945.947266,708.753723 931.906921,716.037964   C922.743530,720.791931 912.837708,723.013733 902.450867,722.158875   C899.957153,721.953552 898.592285,722.639587 897.137634,724.679688   C871.364014,760.824890 837.727295,786.628540 795.220520,799.825134   C767.853210,808.321533 739.987671,814.708496 710.870422,813.382690   C670.140198,811.527954 633.221619,798.906433 600.139771,775.194336   C578.643127,759.786194 560.768738,740.853088 546.500183,718.540161   C545.307739,716.675354 544.551392,714.232849 541.647522,713.562439   C538.917786,716.809753 539.176392,720.996460 538.340881,724.733887   C534.671631,741.147705 530.830688,757.499084 524.735718,773.227783   C520.246948,784.811829 513.224243,794.572876 503.739075,802.586792   C498.238861,807.233887 498.879761,819.814697 504.695618,823.906006   C513.703918,830.243042 522.961670,836.403442 527.015076,847.420776   C527.984863,850.056641 529.300781,852.896423 529.124512,855.554077   C528.748108,861.229675 531.482178,864.785583 535.283386,868.412659   C548.699402,881.213989 554.495789,897.776917 557.213623,915.533813   C559.653625,931.475159 560.675964,947.577271 561.480652,963.691284   C561.758850,969.261414 565.494812,974.055481 565.179199,980.048767   C564.689453,989.350769 565.125671,998.701050 565.135864,1008.030823   C565.136719,1008.841248 564.998352,1009.688965 564.739258,1010.456787   C562.153198,1018.121948 563.960022,1021.986450 571.702881,1024.806396   C564.979065,1025.000000 557.958069,1025.000000 550.613770,1024.613281   C550.410950,1022.406677 550.693909,1020.580811 550.627441,1018.767822   C549.847656,997.498901 549.221741,976.229736 547.897217,954.975464   C547.017395,940.857483 546.125488,926.776489 543.586060,912.868347   C541.598083,901.980652 538.264099,891.539612 530.802490,882.935852   C528.525146,880.309998 526.545410,879.228027 524.711609,883.551270   C517.451843,900.665955 507.302856,916.110596 496.681274,931.256897   C483.207306,950.470886 467.258087,966.969971 445.578430,977.013611   C442.805054,978.298523 442.279358,980.340088 442.300842,983.058289   C442.411530,997.041260 442.076965,1011.030518 443.000000,1025.000000   C438.643097,1025.000000 434.286194,1025.000000 429.612030,1024.613037   C430.318909,1011.262573 429.387512,998.282471 429.612976,985.311768   C429.670349,982.011719 427.624359,981.728333 424.878296,982.033691   C409.958862,983.692383 395.006439,984.168457 380.079193,982.262390   C374.069794,981.495056 368.364899,980.338501 362.401398,983.449341   C359.007233,985.219910 356.114349,987.783997 355.712921,990.644836   C354.821320,996.998901 353.515411,1003.570435 354.773804,1009.977539   C355.340088,1012.860779 355.818085,1015.196411 352.865112,1017.792725   C356.576172,1018.066284 357.282074,1021.598145 360.158020,1021.939209   C363.050354,1022.282227 365.461426,1023.788757 368.000000,1025.000000   C358.645782,1025.000000 349.291534,1025.000000 339.609924,1024.636963   C341.292542,1015.504761 341.512451,1006.506592 342.503174,997.616760   C343.476044,988.886963 342.892700,980.352356 339.435730,971.823120   C329.241028,946.670166 314.975922,924.214294 296.397705,904.542053   C288.519592,896.200073 279.989685,888.509583 269.381409,883.498352   C264.400696,881.145508 259.993591,881.399902 255.251236,884.139893   C248.312744,888.148804 244.562500,894.228699 242.085510,901.599304   C235.229614,921.999939 234.503006,943.324585 232.413635,964.428955   C231.121338,977.482300 230.368622,990.593323 229.585098,1003.691101   C229.160980,1010.780334 229.180557,1017.896179 229.000000,1025.000000   C224.975449,1025.000000 220.950912,1025.000000 216.463165,1025.000000  M610.141296,736.359131   C638.775452,766.421448 672.812500,786.787292 714.252197,793.165283   C733.039917,796.056946 752.139160,796.573120 770.897583,793.233276   C812.002625,785.914795 846.433105,766.317627 874.121216,734.969910   C883.544189,724.301514 891.409180,712.573547 898.232788,700.123230   C900.047302,696.812317 900.827393,693.553772 896.550232,691.300598   C895.367493,690.677551 894.806335,689.491943 895.484253,688.346191   C897.737915,684.537354 895.562683,681.384094 894.347961,677.964417   C891.420410,669.723022 891.753784,661.789124 898.146545,655.185059   C901.287231,651.940735 902.274048,648.837036 900.887329,644.419800   C898.419678,636.559570 899.640991,629.171509 905.698547,623.200745   C909.457153,619.495972 909.938293,615.811584 908.588806,610.614075   C905.278137,597.863464 909.115479,586.901489 922.335449,581.848999   C925.794983,580.526733 927.057495,578.654480 926.636963,575.165100   C925.524292,565.934143 925.073120,556.581360 923.323120,547.476074   C911.467224,485.788177 878.898926,438.160889 824.552673,406.523468   C783.082336,382.381714 738.301331,372.939850 691.019897,384.929443   C642.105957,397.333008 606.380859,428.106354 580.646545,470.575317   C552.477966,517.061462 544.776611,567.726624 553.341309,620.994812   C560.404785,664.926514 579.288025,703.247803 610.141296,736.359131  M474.376068,183.511200   C488.531281,183.358292 502.611084,183.967941 516.582214,186.605377   C547.528076,192.447174 568.342834,209.927338 577.774231,240.116135   C587.411133,270.963013 587.185669,302.172028 578.200562,332.993103   C569.714905,362.101105 551.309631,383.554077 523.949036,396.968994   C502.468994,407.500671 479.355530,411.362457 455.770660,412.193054   C434.652740,412.936737 413.537354,412.649445 392.493774,409.519287   C369.770264,406.139252 347.617493,401.357941 327.945831,388.787567   C301.654785,371.987305 286.323608,348.108551 282.663422,317.052551   C280.908081,302.158722 281.222565,287.174072 281.596588,272.193054   C282.050537,254.008392 286.292542,237.003326 296.124634,221.552780   C297.108429,220.006760 298.039642,218.509995 297.560791,216.455032   C294.268372,202.324875 290.936584,188.242706 282.633148,175.934830   C274.546844,163.948822 265.344482,153.274429 250.393021,150.123734   C243.406235,148.651443 235.278107,147.743423 230.133865,153.342834   C217.560974,167.028229 207.663742,182.670746 200.737793,200.040802   C200.143890,201.530273 199.204590,203.057495 200.031403,204.806717   C201.707993,206.228287 203.867599,205.736069 205.760849,206.261169   C219.665695,210.117798 228.857742,219.812973 234.820023,232.002380   C252.126633,267.384430 252.209442,303.209412 234.720856,338.614227   C230.307373,347.549042 224.550705,356.077454 215.009048,360.564575   C210.686172,362.597534 210.399185,364.653748 212.502167,368.561249   C222.649689,387.416229 236.349930,402.900177 254.279709,414.777802   C292.451111,440.064484 335.170471,449.753998 380.097534,451.536407   C401.723633,452.394409 423.371124,451.919464 444.879944,448.723022   C470.930939,444.851562 496.063751,438.106476 518.986877,424.773560   C551.167542,406.056183 574.389648,379.825134 585.556030,343.765747   C593.775330,317.223267 596.992554,290.315857 592.835205,262.575806   C588.918640,236.442581 581.685120,211.430527 567.819824,188.901047   C531.656006,130.139191 477.308350,101.170479 409.930786,94.447609   C390.847107,92.543449 371.728088,93.135208 352.623749,95.219543   C322.960754,98.455849 294.874084,106.482803 269.106354,121.768158   C261.012146,126.569633 252.964859,131.549576 246.076569,138.474777   C248.483170,140.137238 250.826447,140.306152 253.090469,140.659866   C262.088623,142.065643 270.023560,145.672623 276.299011,152.348434   C285.735413,162.386841 293.458984,173.584106 298.261261,186.603561   C300.887482,193.723434 303.340302,200.907272 305.852386,208.008820   C308.292542,207.709503 309.371674,206.075516 310.768524,204.976181   C318.965302,198.525131 328.009338,193.765579 337.943329,190.509903   C357.682892,184.040619 378.187988,183.593079 398.585907,182.952148   C418.732941,182.319107 438.913666,182.742157 459.079590,182.737640   C463.904358,182.736572 468.753387,182.395096 474.376068,183.511200  M288.025604,477.601471   C286.549255,477.844482 285.068817,478.064972 283.597260,478.333984   C271.330780,480.576294 258.924500,482.292725 247.376678,487.366425   C245.061554,488.383636 242.204895,489.013397 241.598572,492.028107   C242.081284,493.289581 243.056076,493.587646 243.979614,493.966339   C260.749054,500.842224 271.850616,513.498230 279.815338,529.283081   C288.074646,545.651733 289.884827,563.172852 289.425171,581.236023   C289.007721,597.639709 284.780670,612.779419 276.086395,626.610901   C265.122284,644.053345 252.549286,649.311462 231.609589,645.585388   C230.260529,645.345337 228.555817,644.934143 227.991562,646.333008   C225.246399,653.138489 219.644638,659.198364 221.610168,667.329041   C225.322800,682.687012 229.253448,697.965759 234.857208,712.810120   C237.083191,718.706787 240.552567,720.979553 246.449692,721.770569   C255.998810,723.051392 265.619354,724.585022 274.247467,729.243408   C277.196869,730.835815 278.927917,730.489014 281.088623,728.118103   C286.360413,722.333313 291.933868,716.824707 297.258514,711.086609   C307.691650,699.843506 313.350616,687.356262 311.159393,671.201660   C309.734039,660.693542 313.000946,653.872375 323.363495,650.474915   C328.043091,648.940613 332.959229,649.090027 337.651978,650.273376   C351.561829,653.780823 360.940247,666.434692 361.403320,681.201172   C361.757843,692.507019 359.925446,703.399353 356.368927,714.045715   C355.004791,718.129333 355.836700,719.899475 360.511566,719.719727   C367.500458,719.451050 374.519470,719.402039 381.504120,719.725464   C391.286011,720.178406 400.255188,722.990112 406.705017,730.939331   C414.428650,740.458496 414.527893,752.267517 407.172485,764.988770   C405.888947,767.208618 405.030975,769.033447 406.075165,771.881531   C410.396454,783.667969 409.400879,795.063049 402.563416,805.790161   C401.901917,806.827942 400.525574,807.670715 401.179260,809.282410   C406.209229,811.261292 411.368103,810.032776 416.478363,810.008789   C433.465271,809.929016 450.394928,809.488098 467.087769,805.698792   C490.632965,800.354004 507.294159,787.532532 514.952454,763.868164   C520.802979,745.789734 525.367981,727.441711 528.687134,708.758545   C530.074646,700.948425 532.074768,693.378479 528.562805,685.317017   C513.357483,650.413574 507.148041,613.966187 509.458496,575.845520   C510.921234,551.711548 515.778259,528.473755 523.753540,505.782410   C527.753113,494.402649 527.244812,493.160522 515.804749,488.977051   C515.179688,488.748444 514.542358,488.553131 513.909790,488.345245   C496.281982,482.551971 477.863464,480.687561 459.718750,477.468506   C457.850769,477.137085 456.094116,477.417053 454.936920,479.313477   C449.317749,488.522339 440.317810,492.795593 430.417084,495.135803   C398.932465,502.577637 367.667084,500.861084 336.772156,491.757233   C328.201416,489.231628 320.370239,485.082886 314.964264,477.540924   C313.015259,474.821747 310.375183,475.242371 307.749359,475.492065   C301.460663,476.090118 295.181580,476.789093 288.025604,477.601471  M774.711182,273.174530   C774.425964,273.584839 774.145874,273.998749 773.854858,274.404907   C766.017029,285.343933 765.985657,285.381287 755.512085,276.676758   C740.786499,264.438416 725.480591,252.910217 711.106018,240.239624   C706.823425,236.464676 703.652466,237.059753 700.315796,241.812103   C698.977112,243.718826 697.782043,245.727203 696.424683,247.619888   C674.494690,278.198120 652.550110,308.765869 630.606750,339.334595   C616.234253,359.356415 601.901184,379.406738 587.437744,399.362640   C585.308472,402.300507 584.895264,405.376221 585.171143,408.740631   C585.290466,410.195923 586.000366,411.786072 587.580994,411.126831   C591.839111,409.350891 596.568176,409.944214 600.765930,407.068298   C613.137695,398.592224 626.239380,391.273285 640.289612,385.872711   C643.422607,384.668488 645.694641,382.824615 647.614990,380.192627   C667.441223,353.019073 687.321777,325.885101 707.146484,298.710388   C710.995667,293.434143 711.219727,293.239929 716.322083,297.303101   C733.781982,311.206909 751.178711,325.190033 768.604553,339.136566   C773.741699,343.248047 774.009888,343.258728 777.880981,338.010742   C798.738708,309.734222 819.592712,281.454926 840.390808,253.134583   C855.472595,232.598038 870.410522,211.955658 885.535156,191.450882   C889.492310,186.085983 890.452637,186.082108 895.383118,190.436630   C904.503845,198.491913 914.024475,206.046860 923.797791,213.277878   C927.720520,216.180237 928.730103,215.645752 929.724976,211.076645   C934.749878,187.998276 939.797363,164.924835 944.831299,141.848419   C949.438049,120.729897 953.945312,99.588928 958.716797,78.507721   C959.690247,74.206734 958.458496,71.714645 954.414001,70.654648   C952.429749,70.134628 950.491272,71.218201 948.653442,71.921646   C937.923950,76.028244 927.317017,80.476952 916.480530,84.272995   C910.670410,86.308266 906.599304,90.381699 902.560547,94.442596   C898.763428,98.260506 894.926636,100.390953 889.385681,99.498627   C885.306885,98.841782 881.076355,98.603493 877.019348,100.010918   C859.709045,106.016174 842.778320,113.009872 825.797852,119.863739   C820.849792,121.860931 820.462219,125.509537 824.545227,128.864700   C833.935974,136.581512 843.376831,144.237625 852.829590,151.878510   C859.357483,157.155197 859.364197,157.451157 854.474915,164.129013   C828.011719,200.272598 801.584839,236.442764 774.711182,273.174530  M377.611542,865.195251   C373.534515,864.399841 369.425934,863.738159 365.386261,862.784424   C352.128357,859.654236 338.958466,857.038818 325.101166,856.915161   C308.901276,856.770569 293.018646,853.320374 279.089203,844.022827   C277.798798,843.161499 276.514740,842.237305 275.097382,843.681641   C271.483063,847.364563 267.647827,850.916992 265.891571,855.966370   C263.541412,862.723267 265.357819,865.370728 272.360260,865.689941   C273.682709,865.750244 275.012390,865.921753 276.311554,866.179199   C288.995789,868.692261 300.077484,874.420776 310.075043,882.572449   C334.208069,902.249756 353.138214,925.813843 362.506805,955.798218   C365.104553,964.112366 369.601257,967.545593 377.169281,968.991760   C388.369293,971.132080 399.691650,970.851562 410.997864,970.671997   C432.800903,970.325684 451.593048,962.808655 466.847961,946.959778   C468.817627,944.913391 470.995026,943.078003 469.827179,939.566895   C473.758392,939.416260 475.766479,937.034912 477.865631,934.622375   C483.786499,927.817444 488.964691,920.469177 493.830231,912.906433   C501.932556,900.312439 510.463074,887.887573 514.877930,873.372375   C519.715210,857.468323 515.937439,846.722839 503.107544,838.208130   C500.627167,836.561951 498.425385,835.509583 496.678223,839.148193   C490.908112,851.164612 480.454590,857.399292 468.390320,861.217285   C453.732666,865.856079 438.588135,867.859619 423.236298,868.331787   C408.219269,868.793640 393.325256,867.464111 377.611542,865.195251  M121.687538,797.775146   C127.586784,807.232971 136.751297,812.179626 146.867966,815.565308   C169.796021,823.238281 193.303665,828.497253 217.289429,831.472900   C222.355774,832.101379 227.504898,833.943970 233.325150,832.130005   C229.290207,826.592651 225.771194,821.314331 223.925888,815.223145   C215.664230,787.952087 218.690903,762.649780 237.273651,740.130127   C240.813339,735.840515 240.425156,734.537720 235.027359,733.296997   C218.026291,729.389282 201.064804,725.279297 183.976486,721.794312   C175.559692,720.077820 166.953491,718.034973 158.263031,719.720032   C121.404785,726.866943 103.218834,764.804260 121.687538,797.775146  M345.499939,731.247253   C335.843445,731.244812 326.173401,731.546570 316.535980,731.116455   C311.417633,730.888062 306.757019,733.857971 301.805664,732.833984   C297.363922,731.915466 294.025787,733.487854 290.752228,735.952942   C265.621429,754.877319 258.643646,789.314758 271.589294,817.824219   C276.849487,829.408447 286.292145,835.261414 297.747284,840.001221   C311.170685,845.555359 320.245972,837.376892 330.150940,832.033020   C335.934814,828.912537 338.627472,822.434204 340.699677,816.124512   C345.397125,801.820740 346.335480,787.135193 345.311584,772.242432   C344.995026,767.637817 346.813202,765.370544 350.363800,766.975098   C356.361816,769.685547 362.518433,768.761536 368.558838,768.519165   C375.664948,768.233948 382.851837,767.554993 389.580750,764.803955   C397.548035,761.546448 402.990051,751.363770 400.450134,744.573181   C397.110443,735.644531 391.267853,731.413330 381.463287,731.289978   C369.810577,731.143250 358.154602,731.252563 345.499939,731.247253  M141.515854,695.659180   C154.592789,697.024170 166.873230,700.744141 178.048584,707.844482   C185.242477,712.415222 187.651749,711.573181 190.827347,703.685974   C200.638474,679.318176 210.382416,654.922546 220.385788,630.633789   C221.744614,627.334534 221.297791,625.049805 219.303055,622.457947   C214.099472,615.696655 208.198883,609.586975 201.625595,604.207153   C192.797195,596.981567 183.067413,591.228821 171.764175,588.800781   C163.221130,586.965698 155.620438,589.551636 152.272476,595.337280   C133.567230,627.662048 117.696373,661.328918 104.824028,696.392761   C104.184608,698.134521 102.955139,699.958984 104.108887,702.565002   C109.856003,699.857300 115.542992,697.099060 121.782005,696.075134   C128.027008,695.050354 134.305542,694.430054 141.515854,695.659180  M188.534851,514.049072   C171.004837,528.327209 157.494324,545.034180 154.652145,568.527649   C153.657562,576.749023 153.808945,577.326904 161.608200,576.714966   C162.105820,576.675903 162.608536,576.702881 163.106384,576.665588   C177.509201,575.587891 189.701920,581.415588 201.376495,588.886963   C203.806335,590.442017 206.011490,592.460754 209.339249,593.412231   C210.542374,580.899536 210.743378,568.803284 204.121109,558.506836   C195.866135,545.671875 183.361801,540.631714 167.386581,544.598755   C175.074142,531.184998 185.062439,530.544983 196.885757,537.304688   C209.493851,544.513062 216.430710,555.823425 218.423492,570.333496   C219.268555,576.486633 220.544586,582.914856 219.083420,588.684753   C216.194183,600.093994 221.287689,607.694214 228.740982,614.831299   C228.860275,614.945557 228.958237,615.084351 229.054459,615.220032   C231.551712,618.742310 234.637695,618.529419 237.706360,616.269714   C239.417175,615.009949 241.012024,613.400513 242.187424,611.634644   C261.332428,582.873169 263.977173,552.389221 249.644485,521.179626   C243.949905,508.779663 232.380478,502.323792 218.438354,502.282104   C207.396820,502.249115 197.930481,507.360168 188.534851,514.049072  M157.307251,301.413513   C159.258881,316.175659 163.569473,329.948029 173.520859,341.513611   C186.744720,356.882538 206.202011,356.331207 218.236069,340.157288   C223.261948,333.402435 226.684540,325.937744 229.229172,317.908752   C233.838593,303.364868 234.707748,288.442017 233.471710,273.486359   C232.257248,258.791779 228.410583,244.674789 219.741852,232.326477   C207.287979,214.586365 189.400284,213.560226 175.601974,230.163574   C158.556046,250.674744 154.808701,274.838989 157.307251,301.413513  M339.699829,275.149048   C338.842590,281.814819 339.320099,288.391296 340.952454,294.903839   C344.483398,308.990692 354.631592,318.663208 367.001068,318.487122   C379.310638,318.311951 389.953369,311.621826 394.526917,295.879333   C397.117981,286.960785 397.356842,277.884644 395.460266,268.779083   C391.910492,251.736450 375.088257,241.284103 359.294464,246.651871   C346.269806,251.078476 341.236938,261.464172 339.699829,275.149048  M489.700256,297.774017   C492.682465,306.475616 497.546326,313.708710 506.387909,317.231354   C518.445374,322.035309 532.178101,314.862793 537.525269,301.160492   C541.787109,290.239258 541.863403,278.953064 539.084595,267.793365   C535.799561,254.600922 526.027954,246.390106 514.700378,246.341675   C502.819580,246.290878 493.099243,254.691101 489.297516,267.991577   C486.517365,277.718170 486.848267,287.351532 489.700256,297.774017  M258.637604,831.660278   C260.544983,831.479126 262.683685,832.308838 264.521332,830.051514   C249.453735,799.996887 248.659821,770.333435 268.897278,741.834534   C264.467194,737.608765 261.875763,737.185669 256.995850,740.256592   C239.321609,751.379028 233.101913,768.420532 232.306122,788.259827   C232.168854,791.682190 232.183533,794.894836 236.273132,796.019836   C229.447891,808.748230 241.501984,828.294739 258.637604,831.660278  M446.979645,842.277100   C451.719788,841.122864 456.475006,840.677917 461.322479,841.666443   C464.507538,842.315979 467.690399,841.691711 470.680542,840.733704   C476.421326,838.894409 477.746796,834.149048 473.493713,830.041321   C467.821838,824.563477 460.924866,820.819397 453.191498,824.610962   C442.582794,829.812073 432.057678,829.628723 421.169891,826.599670   C417.922791,825.696289 415.031372,826.219055 412.053772,827.765076   C408.851196,829.427734 405.682251,831.452576 401.728638,830.871582   C399.315735,830.517029 396.504059,830.844543 395.881073,833.345581   C395.187134,836.131470 397.106018,838.829041 399.732758,839.673767   C409.109344,842.689209 417.757782,848.347656 428.345184,847.118347   C434.559143,846.396729 440.300049,844.278137 446.979645,842.277100  M404.255676,357.259277   C420.734589,370.021118 439.350220,372.400452 459.131470,368.145569   C472.408691,365.289703 483.491699,358.573059 491.984741,347.799469   C493.962128,345.291138 493.467438,343.296173 491.236725,341.318787   C489.132599,339.453583 487.180298,339.341980 485.124603,341.378052   C483.587006,342.900940 481.973755,344.350861 480.348053,345.780823   C469.260284,355.533569 456.247681,359.247955 441.631744,358.625275   C426.664856,357.987640 413.763947,352.827972 402.981445,342.405884   C401.027466,340.517212 398.851196,339.299225 396.432220,341.554260   C393.999084,343.822479 393.718109,346.354218 395.935913,349.056335   C398.272278,351.902863 400.858643,354.479980 404.255676,357.259277  M929.330078,627.114258   C927.008728,627.148499 924.670288,627.015015 922.369202,627.248657   C915.636780,627.932373 911.460083,631.724976 911.244080,637.149658   C910.958435,644.324524 914.295837,649.035461 921.133179,650.381104   C930.911316,652.305542 939.797363,656.080627 947.820190,662.003967   C951.640076,664.824219 953.727844,664.258606 956.251831,660.136841   C961.027893,652.337280 959.466309,642.158325 952.466980,636.204346   C946.069153,630.761963 938.558472,627.949097 929.330078,627.114258  M919.419189,598.125854   C916.344910,606.682861 920.893677,614.446045 929.830566,615.526672   C938.500366,616.574951 946.754456,618.807007 954.343262,623.204590   C960.419189,626.725586 962.419312,625.954712 964.730225,619.236877   C966.683411,613.559143 965.272339,608.242188 962.332520,603.531494   C953.599121,589.537415 928.597168,585.916687 919.419189,598.125854  M371.432068,779.337952   C367.607208,779.339172 363.777069,779.465942 359.959106,779.304260   C356.531494,779.159058 355.190247,780.554565 355.234344,783.991333   C355.313110,790.131470 355.614960,796.290955 354.463959,802.397583   C354.056580,804.558960 354.535461,806.601746 357.292328,806.636169   C366.906464,806.756226 376.623871,807.613708 385.855743,803.918213   C394.886261,800.303284 399.528015,790.414612 396.912842,781.005371   C395.816284,777.059998 393.725494,775.528992 389.578522,776.676453   C383.974945,778.226868 378.273346,779.393555 371.432068,779.337952  M931.071716,665.441589   C925.419800,662.307312 919.441284,660.759827 912.915344,661.303772   C905.645630,661.909607 903.341980,665.675110 904.934448,672.792847   C907.207764,682.954224 928.466370,693.018372 936.251404,690.523804   C940.809937,689.063110 944.137817,686.283386 945.413635,681.518860   C946.607056,677.061707 943.774841,674.331604 940.902283,671.724365   C938.178101,669.251953 935.016846,667.415466 931.071716,665.441589  M318.522003,701.889832   C317.198944,704.191284 315.899597,706.506836 314.548065,708.791504   C311.368591,714.166138 312.520569,717.241089 318.846741,718.190002   C325.056488,719.121399 331.394409,719.221802 337.681091,719.603943   C339.861023,719.736450 341.535675,718.765076 342.461395,716.701782   C344.440796,712.289978 346.092377,707.732605 346.534698,702.918335   C347.078217,697.001953 341.716888,689.396118 337.220093,689.189026   C329.640594,688.839966 322.214325,693.713745 318.522003,701.889832  M503.257904,471.965546   C506.972351,472.865326 510.674927,473.819305 514.407410,474.636688   C515.782288,474.937775 517.144836,474.564758 517.822083,473.176849   C518.470642,471.847687 517.409851,470.975525 516.624146,470.168549   C510.586456,463.967499 504.525024,457.789429 498.449524,451.625336   C497.237579,450.395691 495.890472,449.536774 493.998322,450.226349   C483.197235,454.162872 472.041473,456.814758 460.843262,459.305969   C459.619965,459.578094 458.541382,460.094025 458.479309,461.473083   C458.422241,462.739746 459.228638,463.724609 460.314270,464.239105   C461.505249,464.803619 462.795685,465.347565 464.086517,465.482819   C476.994324,466.835022 489.730164,469.204956 503.257904,471.965546  M366.036224,834.138855   C367.011261,834.338867 367.983887,834.551575 368.961700,834.737000   C378.098511,836.469482 381.287292,834.563110 383.998047,825.654846   C384.575500,823.757141 384.973297,821.802795 385.409180,819.864502   C386.010376,817.191101 384.943176,816.139648 382.226471,816.522461   C379.608093,816.891357 376.953064,817.009033 374.340759,817.410278   C368.086609,818.371033 361.770599,818.109375 355.493744,818.529602   C351.067932,818.825989 348.453644,822.208252 348.017029,826.987976   C347.591187,831.650146 351.175201,832.644958 354.253815,833.320740   C357.765289,834.091614 361.500702,833.842285 366.036224,834.138855  M607.313782,303.443237   C607.661011,308.300201 604.755981,313.266357 607.545898,318.511475   C617.769531,299.510620 617.269165,260.126617 603.638855,244.676071   C606.299316,264.696533 609.564636,283.469727 607.313782,303.443237  M111.786018,722.063477   C109.456573,717.261292 105.356140,718.077698 102.037468,719.900940   C97.614174,722.331177 94.155800,726.411255 92.714928,731.223450   C91.524147,735.200378 90.369713,739.659485 92.504738,743.880249   C93.989662,746.815735 96.071411,747.769653 98.886711,745.442993   C106.041275,739.530457 111.478821,732.628174 111.786018,722.063477  M219.208771,715.826965   C221.196091,714.096313 220.768051,712.017334 220.094238,709.880554   C218.302505,704.198486 216.534271,698.508972 214.748245,692.825073   C214.305557,691.416321 214.029541,689.701721 212.142044,689.655823   C210.360825,689.612488 209.633347,691.188110 209.088516,692.537476   C207.043182,697.602539 205.194992,702.747620 203.127686,707.803284   C201.778442,711.102844 203.494583,713.170837 206.076950,714.146667   C210.042282,715.645142 214.141205,717.206421 219.208771,715.826965  M942.866455,572.832336   C940.552734,574.368530 940.419495,576.361694 942.384399,578.028015   C943.684265,579.130493 945.463013,578.227661 946.047302,576.823547   C946.966553,574.614624 946.004150,573.054749 942.866455,572.832336  z"/>
<path fill="#000000" opacity="1.000000" stroke="none" d=" M657.055664,485.705444   C665.210754,485.705383 672.874817,485.729370 680.538635,485.698090   C687.419678,485.670013 689.190735,483.988831 688.554688,477.005066   C688.009644,471.019867 687.828979,465.042297 687.749878,459.051758   C687.625000,449.597839 691.690125,445.263916 701.203308,444.889954   C706.860901,444.667572 712.532532,444.628296 718.194092,444.725189   C724.162964,444.827332 727.635986,448.286224 728.401611,454.129150   C729.336182,461.261597 729.118713,468.427887 729.378967,475.581146   C729.430176,476.987030 728.958618,478.649628 730.646362,479.644562   C732.435669,478.708191 731.749878,477.022919 731.761902,475.664337   C731.823730,468.667633 731.614624,461.665131 731.818481,454.673950   C732.037109,447.176147 735.644531,443.838196 743.093201,443.672577   C748.247375,443.557983 753.386658,443.598969 758.552124,443.093933   C765.832153,442.382111 770.837646,447.116241 771.251648,454.705078   C771.550781,460.188843 771.398499,465.696472 771.483948,471.192902   C771.615662,479.662689 775.169617,484.218262 783.355164,486.613098   C793.821777,489.675293 803.643982,494.005676 812.223755,500.934540   C823.062439,509.687653 827.524475,521.692017 829.216553,534.858948   C830.824341,547.369263 828.747192,559.388916 822.169922,570.394409   C819.578064,574.731323 822.369263,577.387634 825.360229,579.628601   C833.801086,585.952942 839.419250,594.331360 842.732422,604.118225   C855.519165,641.888977 836.455994,683.817566 793.106323,692.286804   C789.520935,692.987183 785.921387,693.702698 782.294006,694.078064   C777.843628,694.538635 776.325439,697.261230 776.294678,701.201233   C776.233459,709.030945 776.335632,716.861877 776.293213,724.691833   C776.253479,732.016968 772.724731,735.629944 765.549072,736.400696   C759.405701,737.060547 753.262634,737.377869 747.097900,737.282104   C741.268738,737.191528 737.860535,734.233948 736.712036,728.511536   C735.222473,721.090088 735.969360,713.567383 735.642639,706.093140   C735.562500,704.259277 736.418762,702.019348 734.011353,700.759705   C731.608521,701.719177 732.361389,703.843811 732.402405,705.464783   C732.558167,711.620300 732.961060,717.769104 733.191956,723.923340   C733.500793,732.155640 730.032593,736.342285 722.022705,737.598633   C715.889221,738.560730 709.728516,738.345642 703.579102,737.959534   C698.431885,737.636414 695.352844,734.868347 694.410217,729.700500   C693.172668,722.915710 693.835571,716.076111 693.694824,709.262878   C693.499695,699.818970 691.867859,698.052368 682.654602,698.264404   C675.334656,698.432861 668.018433,698.159973 660.690796,698.883301   C652.516357,699.690369 647.747070,695.879517 647.147400,687.775757   C646.558594,679.819214 646.593689,671.789734 646.839600,663.807190   C647.020386,657.934509 650.821106,654.402710 656.756165,653.896851   C660.068848,653.614441 663.418396,653.796936 666.745422,653.642273   C671.219666,653.434387 673.921875,651.415588 673.878906,646.535645   C673.656067,621.229126 672.965454,595.935974 672.024963,570.646057   C671.641296,560.328003 671.725769,549.992493 671.596558,539.664917   C671.504944,532.339600 669.281677,530.152954 661.908569,530.342590   C659.752747,530.398010 657.610291,530.859314 655.452942,530.986145   C648.172668,531.414246 642.728271,527.846558 642.073364,521.128113   C641.252197,512.703613 640.952515,504.170258 641.246094,495.712280   C641.509583,488.118591 644.718262,485.756897 652.565247,485.703217   C653.898315,485.694122 655.231445,485.704224 657.055664,485.705444  M836.672974,627.380005   C836.888611,622.352722 836.219788,617.392273 834.977966,612.565430   C831.005493,597.124817 821.889893,586.284851 806.470825,581.122864   C801.737915,579.538391 801.513855,578.238525 804.849243,574.577637   C805.857117,573.471436 806.913574,572.403076 808.011047,571.385620   C826.465637,554.275757 823.795593,516.913879 797.727600,502.816742   C787.987183,497.549255 777.595581,494.991760 766.869629,493.528992   C762.714294,492.962280 761.459290,491.213409 761.610168,487.408325   C761.913940,479.743500 761.277405,472.104004 760.872681,464.452972   C760.269409,453.050812 760.409058,453.197510 749.028564,453.192383   C744.747803,453.190460 743.037659,454.578827 743.154785,458.970978   C743.416748,468.795380 743.218323,478.631622 743.439941,488.457764   C743.531982,492.538116 741.886169,494.263214 737.880798,494.204834   C733.217834,494.136902 728.550476,494.201233 723.888000,494.320404   C720.742676,494.400757 719.410767,493.090485 719.384155,489.866699   C719.322205,482.377441 718.921082,474.891388 718.822388,467.401917   C718.628418,452.675201 719.911316,454.474396 705.563843,454.336731   C700.713440,454.290253 699.069397,456.337555 699.312622,460.990204   C699.773254,469.802704 700.012817,478.629181 700.198120,487.452911   C700.342163,494.313904 699.458679,495.164612 692.427795,495.213531   C680.765381,495.294647 669.101135,495.385315 657.440186,495.251678   C653.555908,495.207153 651.940552,496.713348 652.084351,500.526031   C652.247559,504.853180 652.364075,509.188843 652.281311,513.516602   C652.205750,517.464111 654.113953,518.802429 657.833435,518.691284   C662.822937,518.542114 667.841553,518.369446 672.809204,518.732483   C679.224243,519.201416 682.010376,522.416626 682.339172,528.677734   C682.522339,532.166138 683.010132,535.643677 683.084839,539.132019   C683.876160,576.092285 684.646667,613.053101 685.330750,650.015442   C685.451172,656.519775 682.152832,660.490356 675.931946,662.429932   C671.845398,663.704041 667.676453,663.301819 663.532166,663.377747   C659.877991,663.444824 657.928467,664.840942 658.194214,668.807434   C658.416687,672.126770 658.305115,675.468628 658.334106,678.800659   C658.391296,685.369690 658.761658,685.801086 665.557800,685.775330   C676.209778,685.734985 686.876892,686.061523 697.495422,684.889404   C701.845581,684.409302 704.216797,685.568970 704.682739,690.590210   C705.393921,698.252319 705.209717,705.898315 705.302185,713.548279   C705.455872,726.252991 705.355103,726.149536 718.197815,725.740662   C722.198914,725.613281 723.311646,723.926941 723.175781,720.149292   C722.810913,709.998657 722.817810,699.835144 722.528381,689.680969   C722.422913,685.979370 724.046753,684.629456 727.602783,684.639099   C731.590698,684.649963 735.579956,684.316589 739.567993,684.119080   C745.336792,683.833496 746.974426,685.298096 747.244629,691.238159   C747.592590,698.887024 748.001465,706.537537 748.118896,714.191467   C748.286377,725.111328 747.151794,724.688721 759.330566,724.695007   C764.273132,724.697510 766.154297,723.135681 765.957275,718.050232   C765.583374,708.399231 765.829712,698.725952 765.640686,689.065369   C765.566589,685.276428 766.964905,683.613831 770.872314,683.610107   C774.515076,683.606628 778.157043,683.019653 781.799866,682.695374   C812.795349,679.935547 834.980103,661.334229 836.672974,627.380005  z"/>
<path fill="#000000" opacity="1.000000" stroke="none" d=" M887.187622,548.756958   C878.685730,514.330566 862.581116,484.700806 836.274780,461.240265   C810.161926,437.952209 779.729126,423.981750 744.596924,421.150208   C695.258301,417.173645 656.513672,437.293427 625.971008,474.643127   C601.599915,504.445862 590.526978,539.336914 588.908264,577.562622   C587.202026,617.854126 597.419495,654.748108 620.350769,687.861694   C631.486389,703.941956 644.999207,717.671204 661.281128,729.089783   C681.377563,743.183472 702.905334,753.018799 727.135864,755.961670   C743.990356,758.008667 761.025146,757.288452 777.729187,753.533142   C783.832397,752.160950 786.082092,752.406189 793.982910,757.132690   C792.882874,759.341187 790.623840,759.675720 788.657715,760.322876   C758.760071,770.163818 728.898560,770.380005 699.021851,760.097534   C655.212097,745.019653 622.838745,716.587158 600.789429,676.119934   C582.040405,641.709778 575.978760,604.810425 579.537781,566.062927   C583.387390,524.149902 599.360413,487.509064 628.190247,456.881500   C653.379883,430.121124 684.207703,412.956909 721.131592,410.105469   C766.147156,406.629089 806.265991,420.349579 840.680054,449.771881   C867.935303,473.073639 885.844055,502.455902 895.458252,536.855835   C902.802979,563.135559 904.690491,589.860352 900.429565,616.913452   C895.349670,649.166931 884.973999,679.273804 864.706665,705.406250   C855.268433,717.575623 844.818848,728.704712 832.291626,737.774231   C830.253418,739.249756 828.145996,740.545227 824.966858,741.663574   C827.504028,738.360718 829.640747,735.752502 832.223877,733.369873   C835.356689,730.480042 839.806946,728.016052 837.613037,722.291931   C837.135681,721.046448 838.677734,719.965881 839.496277,718.935852   C844.157349,713.069885 849.398254,707.710205 854.170959,701.921692   C861.443787,693.100891 866.683472,683.099915 872.615906,673.477539   C883.189453,656.327515 886.400146,636.955261 889.622620,617.635864   C893.448242,594.700806 891.867981,571.855469 887.187622,548.756958  z"/>
<path fill="#000000" opacity="1.000000" stroke="none" d=" M391.001068,539.630981   C415.804993,539.052612 440.116516,538.631470 464.416382,537.847839   C485.379547,537.171814 497.552612,548.456787 497.291229,569.436340   C497.010986,591.926331 498.141144,614.389160 498.128479,636.869263   C498.123047,646.505066 495.751617,655.272461 488.631012,662.331299   C481.277344,669.621216 471.869659,670.790588 462.320862,671.182129   C448.010468,671.768799 433.683380,671.941162 419.364624,672.333923   C409.545959,672.603271 399.730164,672.977844 389.911591,673.252625   C366.821014,673.898804 355.148468,657.465637 355.429138,639.378296   C355.772247,617.266785 354.662506,595.122620 353.826538,573.005920   C353.030212,551.937866 364.478729,539.651550 385.504486,539.630859   C387.170868,539.629211 388.837219,539.630737 391.001068,539.630981  M383.672119,638.871460   C383.345245,640.221252 383.190216,641.544617 384.622223,642.399292   C388.887665,644.945129 396.210815,642.089478 397.815094,637.267151   C398.182739,636.161987 398.640503,635.075317 398.886200,633.943115   C399.882263,629.353455 402.392700,627.114258 407.357330,627.623779   C410.817139,627.978943 414.343445,627.689636 417.840027,627.682129   C426.376526,627.663879 426.376526,627.662476 429.481354,635.811462   C432.238831,643.048767 432.330505,643.009338 440.003937,642.683044   C443.835052,642.520142 444.943115,641.097412 443.905762,637.313354   C438.134064,616.258972 430.404602,595.920349 421.858337,575.865173   C419.954803,571.398193 416.208862,571.378845 412.270844,571.315979   C408.551849,571.256531 405.877289,572.495178 404.412689,576.132324   C396.268097,596.358276 389.447632,617.018860 383.672119,638.871460  M457.510803,639.719238   C460.781952,643.365356 465.001587,641.847900 468.594208,641.084229   C471.998505,640.360718 470.796112,636.702576 470.756866,634.200012   C470.451691,614.742249 469.893097,595.286865 469.784210,575.828735   C469.755768,570.746277 467.383270,570.193604 463.295715,570.240662   C459.142029,570.288574 456.121674,570.697937 456.241058,576.036316   C456.709595,596.982727 455.493042,617.958374 457.510803,639.719238  z"/>
<path fill="#000000" opacity="1.000000" stroke="none" d=" M170.795654,246.891220   C180.379105,233.230164 192.670639,233.491241 201.080124,247.365204   C208.964355,260.372620 210.641937,274.866974 209.983017,289.623413   C209.440948,301.762695 207.594971,313.698273 201.199432,324.523529   C192.314468,339.562500 178.601868,339.955658 169.178680,325.133575   C162.623138,314.822113 160.659912,303.242157 160.473999,291.284607   C160.232941,275.777924 162.657867,260.845062 170.795654,246.891220  z"/>
<path fill="#000000" opacity="1.000000" stroke="none" d=" M793.559570,625.576050   C794.514160,637.959595 789.465454,646.929993 779.541321,653.234497   C771.783203,658.163025 762.972168,660.436951 753.995972,660.960999   C745.077637,661.481567 736.117065,662.123352 727.122070,661.544067   C722.985291,661.277649 721.434570,659.410889 721.273560,655.768555   C721.045959,650.617432 720.890442,645.460510 720.841980,640.304749   C720.726196,627.990967 720.721558,615.676208 720.601318,603.362549   C720.572388,600.400696 720.997070,597.836792 724.675171,597.879150   C739.456543,598.049377 754.311096,596.318420 769.002563,598.784729   C783.139648,601.158020 792.090576,611.124512 793.559570,625.576050  M731.270020,632.496216   C731.287598,635.988831 731.440613,639.487305 731.288269,642.972473   C731.099609,647.289124 733.191101,648.934937 737.290466,649.003113   C740.938538,649.063660 744.581787,649.460632 748.225525,649.730896   C756.092102,650.314514 763.785217,650.081299 771.110474,646.467590   C779.217407,642.468323 782.240662,637.570740 781.828369,628.145752   C781.466003,619.861023 777.659302,615.104370 769.359070,612.041748   C758.386169,607.992981 747.018860,609.342285 735.776978,609.564087   C731.543518,609.647583 729.874878,613.038757 730.515259,617.075073   C731.276672,621.874634 731.012268,626.695618 731.270020,632.496216  z"/>
<path fill="#000000" opacity="1.000000" stroke="none" d=" M719.207397,520.525024   C724.141846,517.068848 729.486511,518.944885 734.503174,518.379456   C743.434021,517.372925 752.492432,517.667114 761.281799,519.885437   C773.218201,522.897949 780.722168,532.253967 781.305481,544.302490   C781.964050,557.906006 776.083923,568.079346 764.223083,572.412354   C751.360901,577.111206 737.997803,578.231506 724.413025,576.256409   C721.570007,575.843018 719.707397,574.311584 719.757690,571.346375   C720.042542,554.533813 717.814636,537.761108 719.207397,520.525024  M760.571472,532.771057   C751.632996,529.020691 742.250122,530.135071 732.958374,530.246033   C730.531372,530.275024 729.213135,531.440002 729.251587,533.916077   C729.398987,543.395752 729.025818,552.890503 730.123840,562.343201   C730.436951,565.039612 731.726685,566.734741 734.543518,566.789490   C742.875183,566.951477 751.185730,567.003113 759.155090,563.880798   C764.919373,561.622375 768.995178,557.835754 769.132690,551.457642   C769.286743,544.311646 769.505676,536.785278 760.571472,532.771057  z"/>
<path fill="#000000" opacity="1.000000" stroke="none" d=" M416.410309,595.849731   C418.224854,601.036072 419.871735,605.885437 421.645752,610.687927   C422.863464,613.984253 421.669281,615.237427 418.332458,615.393433   C401.475098,616.181458 403.886658,617.074829 408.309937,602.732910   C409.551636,598.706848 410.549805,594.475403 413.105255,590.628296   C415.233246,591.744934 415.484863,593.813782 416.410309,595.849731  z"/>
</svg>